{
  "accessors": [
    {
      "bufferView": 2,
      "componentType": 5126,
      "count": 1202,
      "max": [
        0.3854466378688812,
        0.7980602383613586,
        0.22842827439308167
      ],
      "min": [
        -0.385446697473526,
        -0.7317443490028381,
        -0.17969442903995514
      ],
      "type": "VEC3"
    },
    {
      "bufferView": 2,
      "byteOffset": 14424,
      "componentType": 5126,
      "count": 1202,
      "max": [
        0.9994426965713501,
        0.9604758620262146,
        0.9999516010284424
      ],
      "min": [
        -0.9994426965713501,
        -1.0,
        -0.9993561506271362
      ],
      "type": "VEC3"
    },
    {
      "bufferView": 1,
      "componentType": 5126,
      "count": 1202,
      "max": [
        0.7962613105773926,
        1.0
      ],
      "min": [
        0.0,
        0.026649415493011475
      ],
      "type": "VEC2"
    },
    {
      "bufferView": 0,
      "componentType": 5125,
      "count": 5622,
      "type": "SCALAR"
    },
    {
      "bufferView": 2,
      "byteOffset": 28848,
      "componentType": 5126,
      "count": 514,
      "max": [
        0.3890922963619232,
        0.32183992862701416,
        0.12285415083169937
      ],
      "min": [
        -0.4199172854423523,
        -0.3085120916366577,
        -0.24826732277870178
      ],
      "type": "VEC3"
    },
    {
      "bufferView": 2,
      "byteOffset": 35016,
      "componentType": 5126,
      "count": 514,
      "max": [
        1.0,
        0.9683201313018799,
        0.9994508028030396
      ],
      "min": [
        -0.9999278783798218,
        -0.97547847032547,
        -0.9985603094100952
      ],
      "type": "VEC3"
    },
    {
      "bufferView": 1,
      "byteOffset": 9616,
      "componentType": 5126,
      "count": 514,
      "max": [
        0.4713854193687439,
        0.34276968240737915
      ],
      "min": [
        0.46617990732192993,
        0.28274714946746826
      ],
      "type": "VEC2"
    },
    {
      "bufferView": 0,
      "byteOffset": 22488,
      "componentType": 5125,
      "count": 2580,
      "type": "SCALAR"
    },
    {
      "bufferView": 2,
      "byteOffset": 41184,
      "componentType": 5126,
      "count": 1258,
      "max": [
        0.13795341551303864,
        0.1945786476135254,
        0.13529519736766815
      ],
      "min": [
        -0.13795338571071625,
        -0.1660294532775879,
        -0.1962944120168686
      ],
      "type": "VEC3"
    },
    {
      "bufferView": 2,
      "byteOffset": 56280,
      "componentType": 5126,
      "count": 1258,
      "max": [
        0.9996192455291748,
        0.9898791909217834,
        0.9998116493225098
      ],
      "min": [
        -0.9996192455291748,
        -0.9999178647994995,
        -0.9999998807907104
      ],
      "type": "VEC3"
    },
    {
      "bufferView": 1,
      "byteOffset": 13728,
      "componentType": 5126,
      "count": 1258,
      "max": [
        0.9626110792160034,
        0.8472445011138916
      ],
      "min": [
        0.08290467411279678,
        0.019623398780822754
      ],
      "type": "VEC2"
    },
    {
      "bufferView": 0,
      "byteOffset": 32808,
      "componentType": 5125,
      "count": 6876,
      "type": "SCALAR"
    },
    {
      "bufferView": 2,
      "byteOffset": 71376,
      "componentType": 5126,
      "count": 1344,
      "max": [
        0.17086142301559448,
        0.17277348041534424,
        0.19043457508087158
      ],
      "min": [
        -0.1748507171869278,
        -0.21661126613616943,
        -0.20731805264949799
      ],
      "type": "VEC3"
    },
    {
      "bufferView": 2,
      "byteOffset": 87504,
      "componentType": 5126,
      "count": 1344,
      "max": [
        0.998298704624176,
        0.9978269934654236,
        0.9976466298103333
      ],
      "min": [
        -0.9995691180229187,
        -0.9825653433799744,
        -0.984129011631012
      ],
      "type": "VEC3"
    },
    {
      "bufferView": 1,
      "byteOffset": 23792,
      "componentType": 5126,
      "count": 1344,
      "max": [
        0.41179269552230835,
        0.9820178747177124
      ],
      "min": [
        0.40679043531417847,
        0.9771184325218201
      ],
      "type": "VEC2"
    },
    {
      "bufferView": 0,
      "byteOffset": 60312,
      "componentType": 5125,
      "count": 2016,
      "type": "SCALAR"
    }
  ],
  "asset": {
    "extras": {
      "author": "businessyuen (https://sketchfab.com/businessyuen)",
      "license": "CC-BY-4.0 (http://creativecommons.org/licenses/by/4.0/)",
      "source": "https://sketchfab.com/3d-models/old-lady-7c6be9d171724a30b02ae1f275c55607",
      "title": "Old Lady"
    },
    "generator": "Sketchfab-12.66.0",
    "version": "2.0"
  },
  "bufferViews": [
    {
      "buffer": 0,
      "byteLength": 68376,
      "name": "floatBufferViews",
      "target": 34963
    },
    {
      "buffer": 0,
      "byteLength": 34544,
      "byteOffset": 68376,
      "byteStride": 8,
      "name": "floatBufferViews",
      "target": 34962
    },
    {
      "buffer": 0,
      "byteLength": 103632,
      "byteOffset": 102920,
      "byteStride": 12,
      "name": "floatBufferViews",
      "target": 34962
    }
  ],
  "buffers": [
    {
      "byteLength": 206552,
      "uri": "scene.bin"
    }
  ],
  "images": [
    {
      "uri": "textures/Material.036_baseColor.png"
    }
  ],
  "materials": [
    {
      "doubleSided": true,
      "name": "Material.036",
      "pbrMetallicRoughness": {
        "baseColorTexture": {
          "index": 0
        },
        "metallicFactor": 0.0,
        "roughnessFactor": 0.4
      }
    }
  ],
  "meshes": [
    {
      "name": "Object_0",
      "primitives": [
        {
          "attributes": {
            "NORMAL": 1,
            "POSITION": 0,
            "TEXCOORD_0": 2
          },
          "indices": 3,
          "material": 0,
          "mode": 4
        }
      ]
    },
    {
      "name": "Object_1",
      "primitives": [
        {
          "attributes": {
            "NORMAL": 5,
            "POSITION": 4,
            "TEXCOORD_0": 6
          },
          "indices": 7,
          "material": 0,
          "mode": 4
        }
      ]
    },
    {
      "name": "Object_2",
      "primitives": [
        {
          "attributes": {
            "NORMAL": 9,
            "POSITION": 8,
            "TEXCOORD_0": 10
          },
          "indices": 11,
          "material": 0,
          "mode": 4
        }
      ]
    },
    {
      "name": "Object_3",
      "primitives": [
        {
          "attributes": {
            "NORMAL": 13,
            "POSITION": 12,
            "TEXCOORD_0": 14
          },
          "indices": 15,
          "material": 0,
          "mode": 4
        }
      ]
    }
  ],
  "nodes": [
    {
      "children": [
        1
      ],
      "matrix": [
        1.0,
        0.0,
        0.0,
        0.0,
        0.0,
        2.220446049250313e-16,
        -1.0,
        0.0,
        0.0,
        1.0,
        2.220446049250313e-16,
        0.0,
        0.0,
        0.0,
        0.0,
        1.0
      ],
      "name": "Sketchfab_model"
    },
    {
      "children": [
        2
      ],
      "name": "root"
    },
    {
      "children": [
        3,
        5,
        7,
        9
      ],
      "matrix": [
        1.0,
        0.0,
        0.0,
        0.0,
        0.0,
        2.220446049250313e-16,
        1.0,
        0.0,
        0.0,
        -1.0,
        2.220446049250313e-16,
        0.0,
        0.0,
        0.0,
        0.0,
        1.0
      ],
      "name": "GLTF_SceneRootNode"
    },
    {
      "children": [
        4
      ],
      "matrix": [
        1.0,
        0.0,
        0.0,
        0.0,
        0.0,
        1.0,
        0.0,
        0.0,
        0.0,
        0.0,
        1.0,
        0.0,
        -0.0004687084583565593,
        0.7376163601875305,
        0.01740448549389839,
        1.0
      ],
      "name": "P8Body_2"
    },
    {
      "mesh": 0,
      "name": "Object_4"
    },
    {
      "children": [
        6
      ],
      "matrix": [
        1.0,
        0.0,
        0.0,
        0.0,
        0.0,
        1.0,
        0.0,
        0.0,
        0.0,
        0.0,
        1.0,
        0.0,
        0.018473178148269653,
        1.131829023361206,
        0.06925524026155472,
        1.0
      ],
      "name": "P8Cloth_3"
    },
    {
      "mesh": 1,
      "name": "Object_6"
    },
    {
      "children": [
        8
      ],
      "matrix": [
        1.0,
        0.0,
        0.0,
        0.0,
        0.0,
        1.0,
        0.0,
        0.0,
        0.0,
        0.0,
        1.0,
        0.0,
        -0.0004687402106355876,
        1.6378676891326904,
        0.08826705813407898,
        1.0
      ],
      "name": "P8Face_4"
    },
    {
      "mesh": 2,
      "name": "Object_8"
    },
    {
      "children": [
        10
      ],
      "matrix": [
        1.0,
        0.0,
        0.0,
        0.0,
        0.0,
        1.0,
        0.0,
        0.0,
        0.0,
        0.0,
        1.0,
        0.0,
        -0.0025993871968239546,
        1.7282353639602661,
        0.047712162137031555,
        1.0
      ],
      "name": "P8Hair_5"
    },
    {
      "mesh": 3,
      "name": "Object_10"
    }
  ],
  "samplers": [
    {
      "magFilter": 9729,
      "minFilter": 9987,
      "wrapS": 10497,
      "wrapT": 10497
    }
  ],
  "scene": 0,
  "scenes": [
    {
      "name": "Sketchfab_Scene",
      "nodes": [
        0
      ]
    }
  ],
  "textures": [
    {
      "sampler": 0,
      "source": 0
    }
  ]
}
